<?xml version="1.0" standalone="no"?>
<!DOCTYPE svg PUBLIC "-//W3C//DTD SVG 20010904//EN"
 "http://www.w3.org/TR/2001/REC-SVG-20010904/DTD/svg10.dtd">
<svg version="1.0" xmlns="http://www.w3.org/2000/svg"
 width="1013.000000pt" height="1013.000000pt" viewBox="0 0 1013.000000 1013.000000"
 preserveAspectRatio="xMidYMid meet">
<metadata>
Created by potrace 1.11, written by Peter Selinger 2001-2013
</metadata>
<g transform="translate(0.000000,1013.000000) scale(0.100000,-0.100000)"
fill="#000000" stroke="none">
<path d="M190 10063 c-99 -36 -148 -81 -174 -160 -15 -45 -16 -127 -14 -794 3
-702 4 -746 22 -781 37 -76 113 -128 223 -153 10 -2 153 -39 318 -80 165 -42
307 -78 315 -80 8 -2 231 -59 495 -125 264 -67 487 -123 495 -125 8 -2 184
-46 390 -99 776 -197 1135 -288 1150 -291 8 -2 161 -40 340 -85 179 -45 334
-84 344 -86 10 -2 33 -8 50 -13 17 -6 42 -12 56 -15 14 -3 34 -7 45 -10 27 -7
136 -36 155 -40 8 -2 38 -10 65 -17 62 -15 105 -36 107 -52 10 -85 -5 -99
-141 -127 -57 -12 -117 -23 -132 -25 -15 -2 -45 -8 -66 -14 -21 -5 -54 -12
-73 -15 -19 -3 -127 -24 -240 -46 -113 -22 -221 -43 -240 -46 -19 -3 -43 -7
-52 -10 -10 -3 -30 -7 -45 -10 -16 -3 -59 -11 -98 -19 -38 -8 -85 -17 -103
-20 -18 -3 -63 -12 -100 -19 -37 -8 -83 -17 -102 -20 -19 -3 -46 -8 -60 -11
-14 -3 -36 -7 -50 -10 -14 -3 -36 -7 -50 -10 -14 -3 -41 -8 -60 -11 -19 -3
-43 -7 -52 -10 -10 -3 -30 -7 -45 -10 -16 -3 -109 -21 -208 -40 -190 -37 -373
-72 -415 -80 -14 -2 -36 -7 -50 -10 -14 -3 -36 -8 -50 -10 -44 -8 -124 -23
-150 -29 -28 -6 -61 -12 -105 -20 -62 -12 -184 -35 -310 -61 -71 -14 -143 -28
-160 -31 -16 -3 -187 -36 -380 -74 -192 -37 -367 -71 -389 -75 -21 -3 -48 -8
-60 -11 -11 -3 -39 -8 -61 -12 -22 -5 -105 -20 -185 -35 -170 -33 -227 -55
-274 -106 -69 -77 -67 -46 -64 -941 3 -803 3 -804 25 -844 12 -22 31 -50 43
-62 34 -37 121 -75 195 -86 17 -3 41 -8 55 -11 53 -12 366 -79 385 -81 11 -2
54 -11 95 -20 72 -16 91 -20 135 -29 150 -31 606 -127 715 -151 72 -16 501
-106 645 -135 50 -10 155 -33 235 -50 80 -17 210 -45 290 -61 80 -17 152 -32
160 -34 51 -11 178 -37 195 -41 11 -2 31 -6 45 -9 14 -3 34 -7 45 -9 11 -3 65
-14 120 -26 55 -12 109 -24 120 -26 11 -2 31 -6 45 -9 14 -3 45 -10 70 -15 25
-5 140 -29 255 -54 116 -25 226 -48 245 -51 19 -3 51 -10 70 -15 19 -5 46 -11
60 -14 14 -2 70 -14 126 -25 55 -12 111 -23 123 -26 34 -6 69 -31 76 -55 14
-45 -31 -101 -93 -115 -10 -2 -89 -22 -177 -45 -88 -22 -169 -42 -180 -44 -11
-2 -92 -23 -180 -46 -88 -23 -171 -43 -185 -46 -14 -3 -48 -12 -76 -20 -55
-16 -82 -22 -129 -31 -16 -3 -38 -9 -48 -14 -9 -5 -17 -7 -17 -5 0 3 -11 1
-26 -4 -14 -6 -37 -12 -52 -15 -15 -3 -126 -30 -247 -61 -121 -30 -227 -57
-235 -59 -8 -2 -332 -83 -720 -180 -388 -97 -712 -178 -720 -181 -8 -2 -44
-11 -80 -19 -36 -9 -72 -18 -80 -20 -22 -6 -143 -36 -160 -40 -299 -71 -996
-252 -1025 -267 -53 -27 -92 -64 -118 -113 -22 -40 -22 -43 -24 -792 -3 -727
-2 -755 17 -805 36 -99 144 -163 261 -157 29 2 102 18 163 37 61 19 125 38
141 42 35 10 79 23 265 78 444 132 782 233 830 248 30 9 60 17 65 18 6 1 48
14 95 28 47 14 135 40 195 58 61 18 130 39 155 47 25 8 52 16 60 18 28 6 192
55 199 59 4 3 18 7 32 10 13 3 184 53 379 111 195 58 387 115 425 126 39 12
90 27 115 35 25 7 221 66 435 129 215 64 433 129 485 144 52 16 205 61 340
101 135 39 252 74 260 77 8 3 20 7 25 8 6 2 35 10 65 19 55 16 57 16 155 -13
576 -171 773 -229 790 -234 11 -3 164 -49 340 -102 176 -53 327 -98 335 -100
8 -2 47 -14 85 -25 39 -12 84 -25 100 -30 17 -4 75 -21 130 -38 230 -68 727
-216 815 -242 52 -15 181 -54 285 -85 105 -31 348 -103 540 -160 538 -159 916
-272 1065 -318 110 -34 150 -41 215 -41 128 -1 205 48 245 152 19 49 20 83 20
779 0 794 0 796 -56 863 -41 48 -116 87 -203 105 -9 2 -104 26 -211 54 -107
27 -206 52 -220 55 -14 3 -169 41 -345 86 -176 45 -331 83 -345 86 -14 3 -34
8 -45 11 -11 4 -27 8 -35 9 -8 2 -32 8 -52 13 -51 15 -181 48 -258 66 -8 1
-44 11 -80 20 -36 9 -72 18 -80 20 -8 2 -152 38 -320 80 -274 69 -352 89 -400
100 -8 2 -30 8 -47 14 -18 5 -33 8 -33 5 0 -3 -8 0 -17 5 -10 5 -31 11 -48 14
-16 3 -95 22 -175 42 -80 20 -152 38 -160 40 -23 5 -124 31 -230 59 -52 14
-106 27 -120 30 -117 24 -1031 259 -1050 270 -55 31 -64 100 -17 130 12 9 119
35 237 60 118 25 280 59 360 76 157 34 560 119 600 126 14 3 63 14 110 24 47
10 96 21 110 24 14 2 102 21 195 41 94 20 213 45 265 56 52 11 104 22 115 24
17 4 84 18 190 39 11 3 40 9 65 15 25 5 59 12 76 15 29 5 203 42 594 126 74
16 146 31 160 34 14 2 70 14 125 26 153 33 377 80 410 86 17 3 80 17 140 30
61 14 126 27 145 30 19 3 53 10 75 16 22 6 54 12 70 15 85 14 339 74 368 88
48 23 87 63 111 114 21 46 21 54 23 848 3 777 2 805 -17 854 -38 103 -105 146
-270 174 -19 3 -89 17 -155 30 -66 13 -217 42 -335 65 -118 23 -294 57 -390
76 -96 19 -188 37 -205 40 -16 2 -73 13 -125 24 -52 10 -153 30 -225 44 -456
89 -594 116 -625 121 -19 3 -66 12 -105 20 -38 8 -81 16 -95 19 -74 14 -212
41 -340 66 -80 16 -161 32 -180 35 -19 3 -123 24 -230 45 -107 21 -208 41
-225 43 -25 4 -117 22 -270 53 -26 5 -123 24 -155 30 -14 3 -56 11 -95 19 -38
8 -81 16 -95 18 -14 3 -83 16 -155 30 -71 14 -146 29 -165 32 -83 16 -96 22
-110 55 -10 24 -10 36 0 60 7 17 15 32 19 34 6 4 623 163 664 171 9 2 45 11
80 21 34 9 78 20 97 24 67 16 236 59 435 110 110 28 208 53 218 56 9 2 26 6
37 9 11 3 28 7 38 9 75 18 505 127 717 181 143 37 268 69 278 71 20 3 175 43
577 146 129 33 242 61 250 63 8 2 71 17 140 35 69 17 132 33 140 35 241 57
703 180 735 195 53 25 90 62 119 115 21 40 21 44 24 787 2 723 1 749 -18 799
-50 134 -194 190 -360 140 -36 -11 -141 -43 -235 -71 -93 -28 -177 -53 -185
-55 -8 -2 -76 -23 -150 -45 -74 -23 -171 -52 -215 -65 -44 -12 -186 -55 -315
-94 -129 -40 -239 -73 -245 -75 -5 -1 -30 -8 -55 -15 -25 -7 -97 -29 -160 -48
-166 -50 -739 -223 -780 -235 -19 -5 -109 -33 -200 -60 -91 -28 -194 -58 -230
-68 -36 -10 -351 -105 -700 -210 -349 -106 -648 -196 -665 -200 -16 -5 -147
-44 -290 -87 l-260 -79 -325 98 c-179 54 -392 118 -475 143 -82 24 -204 60
-270 80 -66 20 -165 50 -220 66 -55 17 -120 37 -145 45 -25 8 -180 54 -345
103 -343 102 -1018 305 -1085 325 -25 8 -198 60 -385 116 -187 56 -389 116
-450 135 -119 36 -688 207 -745 223 -19 6 -95 29 -169 51 -128 39 -216 50
-261 34z m5127 -4642 c77 -17 156 -33 175 -36 18 -3 49 -10 68 -15 40 -10 163
-38 200 -44 14 -3 66 -14 115 -25 105 -23 139 -30 180 -37 17 -3 37 -7 45 -10
8 -3 89 -21 180 -40 183 -38 200 -47 200 -114 0 -59 -21 -74 -150 -103 -63
-15 -171 -41 -240 -57 -141 -35 -157 -38 -185 -44 -11 -3 -144 -35 -295 -71
-516 -126 -551 -134 -577 -124 -11 4 -33 10 -49 12 -16 3 -67 15 -114 27 -47
12 -92 23 -100 25 -14 3 -60 14 -355 85 -71 18 -137 33 -145 35 -8 2 -73 18
-145 35 -71 17 -139 33 -150 36 -159 34 -301 75 -312 90 -19 25 -16 88 5 113
12 14 45 26 112 40 52 11 158 34 235 51 77 17 149 32 160 34 11 3 65 14 120
26 55 12 111 24 123 26 13 3 117 25 230 50 114 24 252 54 307 65 55 12 101 22
103 24 2 1 29 -4 60 -11 31 -7 121 -27 199 -43z"/>
</g>
</svg>
