
<svg xmlns="http://www.w3.org/2000/svg" viewBox="0 0 104 18.5">
<title>mswsn logo</title>
	<g id="Layer_2" data-name="Layer 2">
		<g id="Layer_1-2" data-name="Layer 1">
			<path d="M17.5,0h-3a1,1,0,0,0-1,1V3.5a1,1,0,0,1-1,1h-2a1,1,0,0,1-1-1V1a1,1,0,0,0-1-1h-3a1,1,0,0,0-1,1V3.5a1,1,0,0,1-1,1H1a1,1,0,0,0-1,1v12a1,1,0,0,0,1,1H4a1,1,0,0,0,1-1V6A1,1,0,0,1,6,5H8A1,1,0,0,1,9,6V8.5a1,1,0,0,0,1,1h3a1,1,0,0,0,1-1V6a1,1,0,0,1,1-1h2a1,1,0,0,1,1,1V17.5a1,1,0,0,0,1,1h3a1,1,0,0,0,1-1V5.5a1,1,0,0,0-1-1H19.5a1,1,0,0,1-1-1V1A1,1,0,0,0,17.5,0Z"/>
			<path d="M62,13.5H60a1,1,0,0,1-1-1V10a1,1,0,0,0-1-1H55a1,1,0,0,0-1,1v2.5a1,1,0,0,1-1,1H51a1,1,0,0,1-1-1V1a1,1,0,0,0-1-1H46a1,1,0,0,0-1,1V13a1,1,0,0,0,1,1h2.5a1,1,0,0,1,1,1v2.5a1,1,0,0,0,1,1h3a1,1,0,0,0,1-1V15a1,1,0,0,1,1-1h2a1,1,0,0,1,1,1v2.5a1,1,0,0,0,1,1h3a1,1,0,0,0,1-1V15a1,1,0,0,1,1-1H67a1,1,0,0,0,1-1V1a1,1,0,0,0-1-1H64a1,1,0,0,0-1,1V12.5A1,1,0,0,1,62,13.5Z"/>
			<path d="M28,9.5h3a1,1,0,0,0,1-1V6a1,1,0,0,1,1-1h7a1,1,0,0,0,1-1V1a1,1,0,0,0-1-1H28a1,1,0,0,0-1,1V8.5A1,1,0,0,0,28,9.5Z"/>
			<path d="M35,13.5H28a1,1,0,0,0-1,1v3a1,1,0,0,0,1,1H40a1,1,0,0,0,1-1V10a1,1,0,0,0-1-1H37a1,1,0,0,0-1,1v2.5A1,1,0,0,1,35,13.5Z"/>
			<path d="M99.5,3.5V1a1,1,0,0,0-1-1H91a1,1,0,0,0-1,1V17.5a1,1,0,0,0,1,1h3a1,1,0,0,0,1-1V6a1,1,0,0,1,1-1h2a1,1,0,0,1,1,1V17.5a1,1,0,0,0,1,1h3a1,1,0,0,0,1-1V5.5a1,1,0,0,0-1-1h-2.5A1,1,0,0,1,99.5,3.5Z"/>
			<path d="M73,9.5h3a1,1,0,0,0,1-1V6a1,1,0,0,1,1-1h7a1,1,0,0,0,1-1V1a1,1,0,0,0-1-1H73a1,1,0,0,0-1,1V8.5A1,1,0,0,0,73,9.5Z"/>
			<path d="M80,13.5H73a1,1,0,0,0-1,1v3a1,1,0,0,0,1,1H85a1,1,0,0,0,1-1V10a1,1,0,0,0-1-1H82a1,1,0,0,0-1,1v2.5A1,1,0,0,1,80,13.5Z"/>
		</g>
	</g>
</svg>